# xmcd
#
# Track frame offsets:
#	150
#	14353
#	30928
#	48130
#	68271
#	87133
#	103714
#	126024
#	140352
#	158855
#
# Disc length: 2394 seconds
#
# Revision: 0
# Processed by: cddbd v1.5.1PL0 Copyright (c) Steve Scherf et al.
# Submitted via: audiograbber 1.80
#
DISCID=6c09580a
DTITLE=Tedi Spalato - Dalmatinska pismo moja
DYEAR=1900
DGENRE=
TTITLE0=Dalmatinska pismo moja
TTITLE1=Skarpelin
TTITLE2=Zivote, zivote
TTITLE3=Madona
TTITLE4=Dalmatino poviscu pritrujena
TTITLE5=Dobro ti more bilo
TTITLE6=Konoba
TTITLE7=Zlatna krunica
TTITLE8=Balada
TTITLE9=Dok razmisljam o nama
EXTD=
EXTT0=
EXTT1=
EXTT2=
EXTT3=
EXTT4=
EXTT5=
EXTT6=
EXTT7=
EXTT8=
EXTT9=
PLAYORDER=
